<svg xmlns="http://www.w3.org/2000/svg" width="192" height="192" viewBox="0 0 192 192">
  <rect width="192" height="192" rx="40" fill="#db2777"/>
  <path d="M70 96c0-14.36 11.64-26 26-26s26 11.64 26 26-11.64 26-26 26-26-11.64-26-26z" fill="none" stroke="white" stroke-width="8"/>
  <path d="M96 60 L99.8 72.7 A13 13 0 0 1 109.3 82.2 L122 86 L109.3 89.8 A13 13 0 0 1 99.8 99.3 L96 112 L92.2 99.3 A13 13 0 0 1 82.7 89.8 L70 86 L82.7 82.2 A13 13 0 0 1 92.2 72.7 Z" fill="white"/>
  <path d="M130 56 L131.8 62 A6 6 0 0 1 136 66.2 L142 68 L136 69.8 A6 6 0 0 1 131.8 74 L130 80 L128.2 74 A6 6 0 0 1 124 69.8 L118 68 L124 66.2 A6 6 0 0 1 128.2 62 Z" fill="white" opacity="0.7"/>
  <path d="M58 118 L59.4 123 A5 5 0 0 1 63 126.6 L68 128 L63 129.4 A5 5 0 0 1 59.4 133 L58 138 L56.6 133 A5 5 0 0 1 53 129.4 L48 128 L53 126.6 A5 5 0 0 1 56.6 123 Z" fill="white" opacity="0.5"/>
</svg>
